<!DOCTYPE svg PUBLIC "-//W3C//DTD SVG 1.1//EN" "http://www.w3.org/Graphics/SVG/1.1/DTD/svg11.dtd">
<!-- Uploaded to: SVG Repo, www.svgrepo.com, Transformed by: SVG Repo Mixer Tools -->
<svg version="1.1" id="Uploaded to svgrepo.com" xmlns="http://www.w3.org/2000/svg" xmlns:xlink="http://www.w3.org/1999/xlink" width="800px" height="800px" viewBox="0 0 32 32" xml:space="preserve" fill="" stroke="">
<g id="SVGRepo_bgCarrier" stroke-width="0"/>
<g id="SVGRepo_tracerCarrier" stroke-linecap="round" stroke-linejoin="round"/>
<g id="SVGRepo_iconCarrier"> <style type="text/css"> .puchipuchi_een{fill:#C5C8C6;} </style> <path class="puchipuchi_een" d="M24,17c-0.665,0-1.302,0.113-1.9,0.312l-2.068-3.878C21.238,12.337,22,10.759,22,9 c0-3.314-2.686-6-6-6s-6,2.686-6,6c0,1.759,0.762,3.337,1.968,4.434L9.9,17.312C9.302,17.113,8.665,17,8,17c-3.314,0-6,2.686-6,6 s2.686,6,6,6c2.972,0,5.433-2.163,5.91-5h4.18c0.477,2.837,2.938,5,5.91,5c3.314,0,6-2.686,6-6S27.314,17,24,17z M13.654,14.523 C14.375,14.83,15.167,15,16,15s1.625-0.17,2.346-0.477l1.991,3.732c-1.168,0.903-1.991,2.226-2.247,3.744h-4.18 c-0.255-1.518-1.078-2.841-2.247-3.744L13.654,14.523z"/> </g>
</svg>